<svg xmlns="http://www.w3.org/2000/svg" width="48" height="48" viewBox="0 0 48 48">
  <g id="Grupo_1213045" data-name="Grupo 1213045" transform="translate(-186.371 -923)">
    <path id="Trazado_1029715" data-name="Trazado 1029715" d="M6,0H42a6,6,0,0,1,6,6V42a6,6,0,0,1-6,6H6a6,6,0,0,1-6-6V6A6,6,0,0,1,6,0Z" transform="translate(186.371 923)" fill="#7a4f1e"/>
    <path id="computer-solid-full" d="M54.039,96a6.074,6.074,0,0,0-.809,3.033v1.011H36.044V114.2H53.23v4.044H36.044A4.048,4.048,0,0,1,32,114.2V100.044A4.048,4.048,0,0,1,36.044,96Zm-.809,25.274a6.074,6.074,0,0,0,.809,3.033H39.582a1.516,1.516,0,1,1,0-3.033ZM59.3,96h6.066a3.034,3.034,0,0,1,3.033,3.033v22.241a3.034,3.034,0,0,1-3.033,3.033H59.3a3.034,3.034,0,0,1-3.033-3.033V99.033A3.034,3.034,0,0,1,59.3,96Zm1.516,4.044a1.516,1.516,0,1,0,0,3.033h3.033a1.516,1.516,0,1,0,0-3.033Zm0,6.066a1.516,1.516,0,0,0,0,3.033h3.033a1.516,1.516,0,0,0,0-3.033Zm3.538,9.1a2.022,2.022,0,1,0-2.022,2.022A2.02,2.02,0,0,0,64.351,115.208Z" transform="translate(160.371 837)" fill="#f3f9ff"/>
  </g>
</svg>
